<mxfile host="Electron" agent="Mozilla/5.0 (Windows NT 10.0; Win64; x64) AppleWebKit/537.36 (KHTML, like Gecko) draw.io/25.0.2 Chrome/128.0.6613.186 Electron/32.2.5 Safari/537.36" version="25.0.2">
  <diagram name="Page-1" id="MunCnlOXnZfeQjVpfPcm">
    <mxGraphModel dx="4097" dy="2411" grid="1" gridSize="10" guides="1" tooltips="1" connect="1" arrows="1" fold="1" page="1" pageScale="1" pageWidth="1200" pageHeight="1920" math="0" shadow="0">
      <root>
        <mxCell id="0" />
        <mxCell id="1" parent="0" />
        <mxCell id="ML5xk4G4ww_KjUnVl_N--32" style="edgeStyle=orthogonalEdgeStyle;rounded=0;orthogonalLoop=1;jettySize=auto;html=1;entryX=0;entryY=0.5;entryDx=0;entryDy=0;" edge="1" parent="1" source="ML5xk4G4ww_KjUnVl_N--1" target="ML5xk4G4ww_KjUnVl_N--19">
          <mxGeometry relative="1" as="geometry" />
        </mxCell>
        <mxCell id="ML5xk4G4ww_KjUnVl_N--115" style="edgeStyle=orthogonalEdgeStyle;rounded=0;orthogonalLoop=1;jettySize=auto;html=1;exitX=0.25;exitY=1;exitDx=0;exitDy=0;entryX=0.5;entryY=0;entryDx=0;entryDy=0;" edge="1" parent="1" source="ML5xk4G4ww_KjUnVl_N--1" target="ML5xk4G4ww_KjUnVl_N--63">
          <mxGeometry relative="1" as="geometry">
            <Array as="points">
              <mxPoint x="185" y="710" />
            </Array>
          </mxGeometry>
        </mxCell>
        <mxCell id="ML5xk4G4ww_KjUnVl_N--116" style="edgeStyle=orthogonalEdgeStyle;rounded=0;orthogonalLoop=1;jettySize=auto;html=1;exitX=0.75;exitY=1;exitDx=0;exitDy=0;entryX=0.5;entryY=0;entryDx=0;entryDy=0;" edge="1" parent="1" source="ML5xk4G4ww_KjUnVl_N--1" target="ML5xk4G4ww_KjUnVl_N--66">
          <mxGeometry relative="1" as="geometry" />
        </mxCell>
        <mxCell id="ML5xk4G4ww_KjUnVl_N--1" value="&lt;font style=&quot;font-size: 40px;&quot;&gt;external user&lt;/font&gt;" style="rounded=0;whiteSpace=wrap;html=1;" vertex="1" parent="1">
          <mxGeometry x="130" y="570" width="300" height="140" as="geometry" />
        </mxCell>
        <mxCell id="ML5xk4G4ww_KjUnVl_N--29" style="edgeStyle=orthogonalEdgeStyle;rounded=0;orthogonalLoop=1;jettySize=auto;html=1;entryX=0.5;entryY=0;entryDx=0;entryDy=0;" edge="1" parent="1" source="ML5xk4G4ww_KjUnVl_N--2" target="ML5xk4G4ww_KjUnVl_N--1">
          <mxGeometry relative="1" as="geometry" />
        </mxCell>
        <mxCell id="ML5xk4G4ww_KjUnVl_N--2" value="&lt;font style=&quot;font-size: 25px;&quot;&gt;Unique ID&lt;/font&gt;" style="ellipse;whiteSpace=wrap;html=1;" vertex="1" parent="1">
          <mxGeometry x="220" y="410" width="120" height="80" as="geometry" />
        </mxCell>
        <mxCell id="ML5xk4G4ww_KjUnVl_N--50" style="edgeStyle=orthogonalEdgeStyle;rounded=0;orthogonalLoop=1;jettySize=auto;html=1;exitX=0.5;exitY=1;exitDx=0;exitDy=0;entryX=0;entryY=0.5;entryDx=0;entryDy=0;" edge="1" parent="1" source="ML5xk4G4ww_KjUnVl_N--3" target="ML5xk4G4ww_KjUnVl_N--2">
          <mxGeometry relative="1" as="geometry" />
        </mxCell>
        <mxCell id="ML5xk4G4ww_KjUnVl_N--3" value="&lt;font style=&quot;font-size: 25px;&quot;&gt;Name&lt;/font&gt;" style="ellipse;whiteSpace=wrap;html=1;" vertex="1" parent="1">
          <mxGeometry x="60" y="320" width="120" height="80" as="geometry" />
        </mxCell>
        <mxCell id="ML5xk4G4ww_KjUnVl_N--49" style="edgeStyle=orthogonalEdgeStyle;rounded=0;orthogonalLoop=1;jettySize=auto;html=1;entryX=0.5;entryY=0;entryDx=0;entryDy=0;" edge="1" parent="1" source="ML5xk4G4ww_KjUnVl_N--4" target="ML5xk4G4ww_KjUnVl_N--2">
          <mxGeometry relative="1" as="geometry" />
        </mxCell>
        <mxCell id="ML5xk4G4ww_KjUnVl_N--4" value="&lt;font style=&quot;font-size: 25px;&quot;&gt;Email&lt;/font&gt;" style="ellipse;whiteSpace=wrap;html=1;" vertex="1" parent="1">
          <mxGeometry x="220" y="250" width="120" height="80" as="geometry" />
        </mxCell>
        <mxCell id="ML5xk4G4ww_KjUnVl_N--117" style="edgeStyle=orthogonalEdgeStyle;rounded=0;orthogonalLoop=1;jettySize=auto;html=1;entryX=0.5;entryY=0;entryDx=0;entryDy=0;" edge="1" parent="1" source="ML5xk4G4ww_KjUnVl_N--5" target="ML5xk4G4ww_KjUnVl_N--96">
          <mxGeometry relative="1" as="geometry" />
        </mxCell>
        <mxCell id="ML5xk4G4ww_KjUnVl_N--5" value="&lt;span style=&quot;font-size: 40px;&quot;&gt;Prdoucts&lt;/span&gt;" style="rounded=0;whiteSpace=wrap;html=1;" vertex="1" parent="1">
          <mxGeometry x="860" y="570" width="300" height="140" as="geometry" />
        </mxCell>
        <mxCell id="ML5xk4G4ww_KjUnVl_N--6" value="&lt;font style=&quot;font-size: 25px;&quot;&gt;ID&lt;/font&gt;" style="ellipse;whiteSpace=wrap;html=1;" vertex="1" parent="1">
          <mxGeometry x="820" y="450" width="120" height="80" as="geometry" />
        </mxCell>
        <mxCell id="ML5xk4G4ww_KjUnVl_N--44" style="edgeStyle=orthogonalEdgeStyle;rounded=0;orthogonalLoop=1;jettySize=auto;html=1;exitX=1;exitY=1;exitDx=0;exitDy=0;entryX=0;entryY=0.5;entryDx=0;entryDy=0;" edge="1" parent="1" source="ML5xk4G4ww_KjUnVl_N--7" target="ML5xk4G4ww_KjUnVl_N--39">
          <mxGeometry relative="1" as="geometry" />
        </mxCell>
        <mxCell id="ML5xk4G4ww_KjUnVl_N--7" value="&lt;span style=&quot;font-size: 25px;&quot;&gt;Descriptions&lt;/span&gt;" style="ellipse;whiteSpace=wrap;html=1;" vertex="1" parent="1">
          <mxGeometry x="810" y="340" width="170" height="80" as="geometry" />
        </mxCell>
        <mxCell id="ML5xk4G4ww_KjUnVl_N--45" style="edgeStyle=orthogonalEdgeStyle;rounded=0;orthogonalLoop=1;jettySize=auto;html=1;entryX=0.5;entryY=0;entryDx=0;entryDy=0;" edge="1" parent="1" source="ML5xk4G4ww_KjUnVl_N--8" target="ML5xk4G4ww_KjUnVl_N--39">
          <mxGeometry relative="1" as="geometry" />
        </mxCell>
        <mxCell id="ML5xk4G4ww_KjUnVl_N--8" value="&lt;font style=&quot;font-size: 25px;&quot;&gt;Price&lt;/font&gt;" style="ellipse;whiteSpace=wrap;html=1;" vertex="1" parent="1">
          <mxGeometry x="1010" y="270" width="120" height="80" as="geometry" />
        </mxCell>
        <mxCell id="ML5xk4G4ww_KjUnVl_N--26" style="edgeStyle=orthogonalEdgeStyle;rounded=0;orthogonalLoop=1;jettySize=auto;html=1;exitX=1;exitY=0.5;exitDx=0;exitDy=0;entryX=0;entryY=0.5;entryDx=0;entryDy=0;" edge="1" parent="1" source="ML5xk4G4ww_KjUnVl_N--9" target="ML5xk4G4ww_KjUnVl_N--21">
          <mxGeometry relative="1" as="geometry" />
        </mxCell>
        <mxCell id="ML5xk4G4ww_KjUnVl_N--9" value="&lt;font style=&quot;font-size: 40px;&quot;&gt;Cart&lt;/font&gt;" style="rounded=0;whiteSpace=wrap;html=1;" vertex="1" parent="1">
          <mxGeometry x="1670" y="570" width="300" height="140" as="geometry" />
        </mxCell>
        <mxCell id="ML5xk4G4ww_KjUnVl_N--10" value="&lt;font style=&quot;font-size: 25px;&quot;&gt;Price total&lt;/font&gt;" style="ellipse;whiteSpace=wrap;html=1;" vertex="1" parent="1">
          <mxGeometry x="1640" y="450" width="120" height="80" as="geometry" />
        </mxCell>
        <mxCell id="ML5xk4G4ww_KjUnVl_N--52" style="edgeStyle=orthogonalEdgeStyle;rounded=0;orthogonalLoop=1;jettySize=auto;html=1;entryX=0.5;entryY=0;entryDx=0;entryDy=0;" edge="1" parent="1" source="ML5xk4G4ww_KjUnVl_N--11" target="ML5xk4G4ww_KjUnVl_N--9">
          <mxGeometry relative="1" as="geometry" />
        </mxCell>
        <mxCell id="ML5xk4G4ww_KjUnVl_N--11" value="&lt;font style=&quot;font-size: 25px;&quot;&gt;Quantity of items&lt;/font&gt;" style="ellipse;whiteSpace=wrap;html=1;" vertex="1" parent="1">
          <mxGeometry x="1737.5" y="340" width="165" height="110" as="geometry" />
        </mxCell>
        <mxCell id="ML5xk4G4ww_KjUnVl_N--13" value="&lt;font style=&quot;font-size: 25px;&quot;&gt;Products&lt;/font&gt;" style="ellipse;whiteSpace=wrap;html=1;" vertex="1" parent="1">
          <mxGeometry x="1880" y="450" width="120" height="80" as="geometry" />
        </mxCell>
        <mxCell id="ML5xk4G4ww_KjUnVl_N--114" style="edgeStyle=orthogonalEdgeStyle;rounded=0;orthogonalLoop=1;jettySize=auto;html=1;entryX=0.5;entryY=0;entryDx=0;entryDy=0;" edge="1" parent="1" source="ML5xk4G4ww_KjUnVl_N--14" target="ML5xk4G4ww_KjUnVl_N--109">
          <mxGeometry relative="1" as="geometry" />
        </mxCell>
        <mxCell id="ML5xk4G4ww_KjUnVl_N--14" value="&lt;font style=&quot;font-size: 40px;&quot;&gt;Order&lt;/font&gt;" style="rounded=0;whiteSpace=wrap;html=1;" vertex="1" parent="1">
          <mxGeometry x="2460" y="570" width="300" height="140" as="geometry" />
        </mxCell>
        <mxCell id="ML5xk4G4ww_KjUnVl_N--58" style="edgeStyle=orthogonalEdgeStyle;rounded=0;orthogonalLoop=1;jettySize=auto;html=1;exitX=0.5;exitY=1;exitDx=0;exitDy=0;entryX=0.5;entryY=0;entryDx=0;entryDy=0;" edge="1" parent="1" source="ML5xk4G4ww_KjUnVl_N--16" target="ML5xk4G4ww_KjUnVl_N--14">
          <mxGeometry relative="1" as="geometry" />
        </mxCell>
        <mxCell id="ML5xk4G4ww_KjUnVl_N--16" value="&lt;font style=&quot;font-size: 25px;&quot;&gt;Delivery&lt;/font&gt;" style="ellipse;whiteSpace=wrap;html=1;" vertex="1" parent="1">
          <mxGeometry x="2550" y="400" width="120" height="80" as="geometry" />
        </mxCell>
        <mxCell id="ML5xk4G4ww_KjUnVl_N--56" style="edgeStyle=orthogonalEdgeStyle;rounded=0;orthogonalLoop=1;jettySize=auto;html=1;entryX=1;entryY=0.5;entryDx=0;entryDy=0;" edge="1" parent="1" source="ML5xk4G4ww_KjUnVl_N--18" target="ML5xk4G4ww_KjUnVl_N--16">
          <mxGeometry relative="1" as="geometry" />
        </mxCell>
        <mxCell id="ML5xk4G4ww_KjUnVl_N--18" value="&lt;font style=&quot;font-size: 25px;&quot;&gt;Date&lt;/font&gt;" style="ellipse;whiteSpace=wrap;html=1;" vertex="1" parent="1">
          <mxGeometry x="2650" y="310" width="120" height="80" as="geometry" />
        </mxCell>
        <mxCell id="ML5xk4G4ww_KjUnVl_N--23" style="edgeStyle=orthogonalEdgeStyle;rounded=0;orthogonalLoop=1;jettySize=auto;html=1;exitX=1;exitY=0.5;exitDx=0;exitDy=0;entryX=0;entryY=0.5;entryDx=0;entryDy=0;" edge="1" parent="1" source="ML5xk4G4ww_KjUnVl_N--19" target="ML5xk4G4ww_KjUnVl_N--5">
          <mxGeometry relative="1" as="geometry" />
        </mxCell>
        <mxCell id="ML5xk4G4ww_KjUnVl_N--19" value="&lt;font style=&quot;font-size: 40px;&quot;&gt;Looks at&lt;/font&gt;" style="rhombus;whiteSpace=wrap;html=1;" vertex="1" parent="1">
          <mxGeometry x="490" y="495" width="290" height="290" as="geometry" />
        </mxCell>
        <mxCell id="ML5xk4G4ww_KjUnVl_N--25" style="edgeStyle=orthogonalEdgeStyle;rounded=0;orthogonalLoop=1;jettySize=auto;html=1;exitX=1;exitY=0.5;exitDx=0;exitDy=0;entryX=0;entryY=0.5;entryDx=0;entryDy=0;" edge="1" parent="1" source="ML5xk4G4ww_KjUnVl_N--20" target="ML5xk4G4ww_KjUnVl_N--9">
          <mxGeometry relative="1" as="geometry" />
        </mxCell>
        <mxCell id="ML5xk4G4ww_KjUnVl_N--37" style="edgeStyle=orthogonalEdgeStyle;rounded=0;orthogonalLoop=1;jettySize=auto;html=1;entryX=1;entryY=0.5;entryDx=0;entryDy=0;" edge="1" parent="1" source="ML5xk4G4ww_KjUnVl_N--20" target="ML5xk4G4ww_KjUnVl_N--5">
          <mxGeometry relative="1" as="geometry" />
        </mxCell>
        <mxCell id="ML5xk4G4ww_KjUnVl_N--20" value="&lt;span style=&quot;font-size: 40px;&quot;&gt;Adds to&lt;/span&gt;" style="rhombus;whiteSpace=wrap;html=1;" vertex="1" parent="1">
          <mxGeometry x="1260" y="495" width="290" height="290" as="geometry" />
        </mxCell>
        <mxCell id="ML5xk4G4ww_KjUnVl_N--27" style="edgeStyle=orthogonalEdgeStyle;rounded=0;orthogonalLoop=1;jettySize=auto;html=1;exitX=1;exitY=0.5;exitDx=0;exitDy=0;entryX=0;entryY=0.5;entryDx=0;entryDy=0;" edge="1" parent="1" source="ML5xk4G4ww_KjUnVl_N--21" target="ML5xk4G4ww_KjUnVl_N--14">
          <mxGeometry relative="1" as="geometry" />
        </mxCell>
        <mxCell id="ML5xk4G4ww_KjUnVl_N--21" value="&lt;font style=&quot;font-size: 40px;&quot;&gt;Makes&lt;/font&gt;" style="rhombus;whiteSpace=wrap;html=1;" vertex="1" parent="1">
          <mxGeometry x="2080" y="495" width="290" height="290" as="geometry" />
        </mxCell>
        <mxCell id="ML5xk4G4ww_KjUnVl_N--36" style="edgeStyle=orthogonalEdgeStyle;rounded=0;orthogonalLoop=1;jettySize=auto;html=1;entryX=0.067;entryY=0;entryDx=0;entryDy=0;entryPerimeter=0;" edge="1" parent="1" source="ML5xk4G4ww_KjUnVl_N--6" target="ML5xk4G4ww_KjUnVl_N--5">
          <mxGeometry relative="1" as="geometry" />
        </mxCell>
        <mxCell id="ML5xk4G4ww_KjUnVl_N--39" value="&lt;div&gt;&lt;font style=&quot;font-size: 25px;&quot;&gt;product&lt;/font&gt;&lt;/div&gt;&lt;font style=&quot;font-size: 25px;&quot;&gt;Attributes&lt;/font&gt;" style="ellipse;whiteSpace=wrap;html=1;" vertex="1" parent="1">
          <mxGeometry x="980" y="450" width="180" height="80" as="geometry" />
        </mxCell>
        <mxCell id="ML5xk4G4ww_KjUnVl_N--41" style="edgeStyle=orthogonalEdgeStyle;rounded=0;orthogonalLoop=1;jettySize=auto;html=1;exitX=0.5;exitY=1;exitDx=0;exitDy=0;entryX=0.7;entryY=0;entryDx=0;entryDy=0;entryPerimeter=0;" edge="1" parent="1" source="ML5xk4G4ww_KjUnVl_N--39" target="ML5xk4G4ww_KjUnVl_N--5">
          <mxGeometry relative="1" as="geometry" />
        </mxCell>
        <mxCell id="ML5xk4G4ww_KjUnVl_N--46" style="edgeStyle=orthogonalEdgeStyle;rounded=0;orthogonalLoop=1;jettySize=auto;html=1;entryX=1;entryY=0.5;entryDx=0;entryDy=0;" edge="1" parent="1" source="ML5xk4G4ww_KjUnVl_N--42" target="ML5xk4G4ww_KjUnVl_N--39">
          <mxGeometry relative="1" as="geometry" />
        </mxCell>
        <mxCell id="ML5xk4G4ww_KjUnVl_N--42" value="&lt;span style=&quot;font-size: 25px;&quot;&gt;Stock&lt;/span&gt;" style="ellipse;whiteSpace=wrap;html=1;" vertex="1" parent="1">
          <mxGeometry x="1160" y="340" width="120" height="80" as="geometry" />
        </mxCell>
        <mxCell id="ML5xk4G4ww_KjUnVl_N--48" style="edgeStyle=orthogonalEdgeStyle;rounded=0;orthogonalLoop=1;jettySize=auto;html=1;entryX=1;entryY=0.5;entryDx=0;entryDy=0;" edge="1" parent="1" source="ML5xk4G4ww_KjUnVl_N--47" target="ML5xk4G4ww_KjUnVl_N--2">
          <mxGeometry relative="1" as="geometry">
            <Array as="points">
              <mxPoint x="430" y="450" />
            </Array>
          </mxGeometry>
        </mxCell>
        <mxCell id="ML5xk4G4ww_KjUnVl_N--47" value="&lt;font style=&quot;font-size: 25px;&quot;&gt;Password&lt;/font&gt;" style="ellipse;whiteSpace=wrap;html=1;" vertex="1" parent="1">
          <mxGeometry x="370" y="320" width="120" height="80" as="geometry" />
        </mxCell>
        <mxCell id="ML5xk4G4ww_KjUnVl_N--53" style="edgeStyle=orthogonalEdgeStyle;rounded=0;orthogonalLoop=1;jettySize=auto;html=1;exitX=0.5;exitY=1;exitDx=0;exitDy=0;entryX=0.902;entryY=-0.009;entryDx=0;entryDy=0;entryPerimeter=0;" edge="1" parent="1" source="ML5xk4G4ww_KjUnVl_N--13" target="ML5xk4G4ww_KjUnVl_N--9">
          <mxGeometry relative="1" as="geometry" />
        </mxCell>
        <mxCell id="ML5xk4G4ww_KjUnVl_N--54" style="edgeStyle=orthogonalEdgeStyle;rounded=0;orthogonalLoop=1;jettySize=auto;html=1;entryX=0.1;entryY=0;entryDx=0;entryDy=0;entryPerimeter=0;" edge="1" parent="1" source="ML5xk4G4ww_KjUnVl_N--10" target="ML5xk4G4ww_KjUnVl_N--9">
          <mxGeometry relative="1" as="geometry" />
        </mxCell>
        <mxCell id="ML5xk4G4ww_KjUnVl_N--57" style="edgeStyle=orthogonalEdgeStyle;rounded=0;orthogonalLoop=1;jettySize=auto;html=1;entryX=0;entryY=0.5;entryDx=0;entryDy=0;" edge="1" parent="1" source="ML5xk4G4ww_KjUnVl_N--55" target="ML5xk4G4ww_KjUnVl_N--16">
          <mxGeometry relative="1" as="geometry" />
        </mxCell>
        <mxCell id="ML5xk4G4ww_KjUnVl_N--55" value="&lt;font style=&quot;font-size: 25px;&quot;&gt;Address&lt;/font&gt;" style="ellipse;whiteSpace=wrap;html=1;" vertex="1" parent="1">
          <mxGeometry x="2440" y="310" width="120" height="80" as="geometry" />
        </mxCell>
        <mxCell id="ML5xk4G4ww_KjUnVl_N--60" style="edgeStyle=orthogonalEdgeStyle;rounded=0;orthogonalLoop=1;jettySize=auto;html=1;entryX=0.25;entryY=0;entryDx=0;entryDy=0;" edge="1" parent="1" source="ML5xk4G4ww_KjUnVl_N--59" target="ML5xk4G4ww_KjUnVl_N--14">
          <mxGeometry relative="1" as="geometry" />
        </mxCell>
        <mxCell id="ML5xk4G4ww_KjUnVl_N--59" value="&lt;span style=&quot;font-size: 25px;&quot;&gt;Payment&lt;/span&gt;" style="ellipse;whiteSpace=wrap;html=1;" vertex="1" parent="1">
          <mxGeometry x="2370" y="450" width="120" height="80" as="geometry" />
        </mxCell>
        <mxCell id="ML5xk4G4ww_KjUnVl_N--62" style="edgeStyle=orthogonalEdgeStyle;rounded=0;orthogonalLoop=1;jettySize=auto;html=1;entryX=0.75;entryY=0;entryDx=0;entryDy=0;" edge="1" parent="1" source="ML5xk4G4ww_KjUnVl_N--61" target="ML5xk4G4ww_KjUnVl_N--14">
          <mxGeometry relative="1" as="geometry" />
        </mxCell>
        <mxCell id="ML5xk4G4ww_KjUnVl_N--61" value="&lt;font style=&quot;font-size: 25px;&quot;&gt;Order ID&lt;/font&gt;" style="ellipse;whiteSpace=wrap;html=1;" vertex="1" parent="1">
          <mxGeometry x="2740" y="450" width="120" height="80" as="geometry" />
        </mxCell>
        <mxCell id="ML5xk4G4ww_KjUnVl_N--69" style="edgeStyle=orthogonalEdgeStyle;rounded=0;orthogonalLoop=1;jettySize=auto;html=1;" edge="1" parent="1" source="ML5xk4G4ww_KjUnVl_N--63" target="ML5xk4G4ww_KjUnVl_N--68">
          <mxGeometry relative="1" as="geometry" />
        </mxCell>
        <mxCell id="ML5xk4G4ww_KjUnVl_N--63" value="&lt;font style=&quot;font-size: 40px;&quot;&gt;Makes&lt;/font&gt;" style="rhombus;whiteSpace=wrap;html=1;" vertex="1" parent="1">
          <mxGeometry x="40" y="815" width="290" height="290" as="geometry" />
        </mxCell>
        <mxCell id="ML5xk4G4ww_KjUnVl_N--66" value="&lt;font style=&quot;font-size: 40px;&quot;&gt;Has&lt;/font&gt;" style="rhombus;whiteSpace=wrap;html=1;" vertex="1" parent="1">
          <mxGeometry x="410" y="815" width="290" height="290" as="geometry" />
        </mxCell>
        <mxCell id="ML5xk4G4ww_KjUnVl_N--68" value="&lt;font style=&quot;font-size: 40px;&quot;&gt;Payment&lt;/font&gt;" style="rounded=0;whiteSpace=wrap;html=1;" vertex="1" parent="1">
          <mxGeometry x="35" y="1210" width="300" height="140" as="geometry" />
        </mxCell>
        <mxCell id="ML5xk4G4ww_KjUnVl_N--107" style="edgeStyle=orthogonalEdgeStyle;rounded=0;orthogonalLoop=1;jettySize=auto;html=1;entryX=0;entryY=0.5;entryDx=0;entryDy=0;" edge="1" parent="1" source="ML5xk4G4ww_KjUnVl_N--70" target="ML5xk4G4ww_KjUnVl_N--100">
          <mxGeometry relative="1" as="geometry">
            <Array as="points">
              <mxPoint x="880" y="1435" />
            </Array>
          </mxGeometry>
        </mxCell>
        <mxCell id="ML5xk4G4ww_KjUnVl_N--70" value="&lt;span style=&quot;font-size: 25px;&quot;&gt;Drop stock&lt;/span&gt;" style="ellipse;whiteSpace=wrap;html=1;" vertex="1" parent="1">
          <mxGeometry x="820" y="1465" width="120" height="80" as="geometry" />
        </mxCell>
        <mxCell id="ML5xk4G4ww_KjUnVl_N--78" style="edgeStyle=orthogonalEdgeStyle;rounded=0;orthogonalLoop=1;jettySize=auto;html=1;entryX=0.5;entryY=0;entryDx=0;entryDy=0;" edge="1" parent="1" source="ML5xk4G4ww_KjUnVl_N--71" target="ML5xk4G4ww_KjUnVl_N--74">
          <mxGeometry relative="1" as="geometry">
            <Array as="points">
              <mxPoint x="360" y="1510" />
            </Array>
          </mxGeometry>
        </mxCell>
        <mxCell id="ML5xk4G4ww_KjUnVl_N--79" style="edgeStyle=orthogonalEdgeStyle;rounded=0;orthogonalLoop=1;jettySize=auto;html=1;entryX=0.5;entryY=0;entryDx=0;entryDy=0;" edge="1" parent="1" source="ML5xk4G4ww_KjUnVl_N--71" target="ML5xk4G4ww_KjUnVl_N--73">
          <mxGeometry relative="1" as="geometry" />
        </mxCell>
        <mxCell id="ML5xk4G4ww_KjUnVl_N--80" style="edgeStyle=orthogonalEdgeStyle;rounded=0;orthogonalLoop=1;jettySize=auto;html=1;entryX=0.5;entryY=0;entryDx=0;entryDy=0;" edge="1" parent="1" source="ML5xk4G4ww_KjUnVl_N--71" target="ML5xk4G4ww_KjUnVl_N--72">
          <mxGeometry relative="1" as="geometry">
            <Array as="points">
              <mxPoint x="110" y="1520" />
            </Array>
          </mxGeometry>
        </mxCell>
        <mxCell id="ML5xk4G4ww_KjUnVl_N--71" value="&lt;span style=&quot;font-size: 25px;&quot;&gt;Method&lt;/span&gt;" style="ellipse;whiteSpace=wrap;html=1;" vertex="1" parent="1">
          <mxGeometry x="190" y="1480" width="120" height="80" as="geometry" />
        </mxCell>
        <mxCell id="ML5xk4G4ww_KjUnVl_N--72" value="&lt;div&gt;&lt;span style=&quot;font-size: 25px;&quot;&gt;Online&lt;/span&gt;&lt;/div&gt;&lt;span style=&quot;font-size: 25px;&quot;&gt;Payment service&lt;/span&gt;" style="ellipse;whiteSpace=wrap;html=1;" vertex="1" parent="1">
          <mxGeometry x="20" y="1550" width="180" height="120" as="geometry" />
        </mxCell>
        <mxCell id="ML5xk4G4ww_KjUnVl_N--73" value="&lt;span style=&quot;font-size: 25px;&quot;&gt;Credit card&lt;/span&gt;" style="ellipse;whiteSpace=wrap;html=1;" vertex="1" parent="1">
          <mxGeometry x="190" y="1680" width="120" height="80" as="geometry" />
        </mxCell>
        <mxCell id="ML5xk4G4ww_KjUnVl_N--74" value="&lt;span style=&quot;font-size: 25px;&quot;&gt;Debit Card&lt;/span&gt;" style="ellipse;whiteSpace=wrap;html=1;" vertex="1" parent="1">
          <mxGeometry x="300" y="1560" width="120" height="80" as="geometry" />
        </mxCell>
        <mxCell id="ML5xk4G4ww_KjUnVl_N--75" value="&lt;div&gt;&lt;span style=&quot;font-size: 25px;&quot;&gt;Total&lt;/span&gt;&lt;/div&gt;&lt;span style=&quot;font-size: 25px;&quot;&gt;Amount spent&lt;/span&gt;" style="ellipse;whiteSpace=wrap;html=1;" vertex="1" parent="1">
          <mxGeometry x="20" y="1390" width="150" height="100" as="geometry" />
        </mxCell>
        <mxCell id="ML5xk4G4ww_KjUnVl_N--76" style="edgeStyle=orthogonalEdgeStyle;rounded=0;orthogonalLoop=1;jettySize=auto;html=1;entryX=0.201;entryY=0.97;entryDx=0;entryDy=0;entryPerimeter=0;" edge="1" parent="1" source="ML5xk4G4ww_KjUnVl_N--75" target="ML5xk4G4ww_KjUnVl_N--68">
          <mxGeometry relative="1" as="geometry" />
        </mxCell>
        <mxCell id="ML5xk4G4ww_KjUnVl_N--77" style="edgeStyle=orthogonalEdgeStyle;rounded=0;orthogonalLoop=1;jettySize=auto;html=1;entryX=0.715;entryY=1.021;entryDx=0;entryDy=0;entryPerimeter=0;" edge="1" parent="1" source="ML5xk4G4ww_KjUnVl_N--71" target="ML5xk4G4ww_KjUnVl_N--68">
          <mxGeometry relative="1" as="geometry" />
        </mxCell>
        <mxCell id="ML5xk4G4ww_KjUnVl_N--82" style="edgeStyle=orthogonalEdgeStyle;rounded=0;orthogonalLoop=1;jettySize=auto;html=1;entryX=0.5;entryY=1;entryDx=0;entryDy=0;" edge="1" parent="1" source="ML5xk4G4ww_KjUnVl_N--81" target="ML5xk4G4ww_KjUnVl_N--66">
          <mxGeometry relative="1" as="geometry" />
        </mxCell>
        <mxCell id="ML5xk4G4ww_KjUnVl_N--81" value="&lt;span style=&quot;font-size: 40px;&quot;&gt;Account&lt;/span&gt;" style="rounded=0;whiteSpace=wrap;html=1;" vertex="1" parent="1">
          <mxGeometry x="405" y="1210" width="300" height="140" as="geometry" />
        </mxCell>
        <mxCell id="ML5xk4G4ww_KjUnVl_N--88" style="edgeStyle=orthogonalEdgeStyle;rounded=0;orthogonalLoop=1;jettySize=auto;html=1;entryX=0;entryY=0.5;entryDx=0;entryDy=0;" edge="1" parent="1" source="ML5xk4G4ww_KjUnVl_N--83" target="ML5xk4G4ww_KjUnVl_N--85">
          <mxGeometry relative="1" as="geometry" />
        </mxCell>
        <mxCell id="ML5xk4G4ww_KjUnVl_N--83" value="&lt;font style=&quot;font-size: 22px;&quot;&gt;Delivery locations&lt;/font&gt;" style="ellipse;whiteSpace=wrap;html=1;" vertex="1" parent="1">
          <mxGeometry x="432.5" y="1500" width="120" height="80" as="geometry" />
        </mxCell>
        <mxCell id="ML5xk4G4ww_KjUnVl_N--85" value="&lt;span style=&quot;font-size: 25px;&quot;&gt;Unique IDs&lt;/span&gt;" style="ellipse;whiteSpace=wrap;html=1;" vertex="1" parent="1">
          <mxGeometry x="537.5" y="1410" width="120" height="80" as="geometry" />
        </mxCell>
        <mxCell id="ML5xk4G4ww_KjUnVl_N--90" style="edgeStyle=orthogonalEdgeStyle;rounded=0;orthogonalLoop=1;jettySize=auto;html=1;entryX=1;entryY=0.5;entryDx=0;entryDy=0;" edge="1" parent="1" source="ML5xk4G4ww_KjUnVl_N--89" target="ML5xk4G4ww_KjUnVl_N--85">
          <mxGeometry relative="1" as="geometry" />
        </mxCell>
        <mxCell id="ML5xk4G4ww_KjUnVl_N--89" value="&lt;span style=&quot;font-size: 25px;&quot;&gt;Delivery names&lt;/span&gt;" style="ellipse;whiteSpace=wrap;html=1;" vertex="1" parent="1">
          <mxGeometry x="642.5" y="1500" width="120" height="80" as="geometry" />
        </mxCell>
        <mxCell id="ML5xk4G4ww_KjUnVl_N--92" value="&lt;span style=&quot;font-size: 25px;&quot;&gt;Account ID&lt;/span&gt;" style="ellipse;whiteSpace=wrap;html=1;" vertex="1" parent="1">
          <mxGeometry x="347.5" y="1410" width="122.5" height="80" as="geometry" />
        </mxCell>
        <mxCell id="ML5xk4G4ww_KjUnVl_N--95" style="edgeStyle=orthogonalEdgeStyle;rounded=0;orthogonalLoop=1;jettySize=auto;html=1;exitX=1;exitY=0;exitDx=0;exitDy=0;entryX=0.157;entryY=1;entryDx=0;entryDy=0;entryPerimeter=0;" edge="1" parent="1" source="ML5xk4G4ww_KjUnVl_N--92" target="ML5xk4G4ww_KjUnVl_N--81">
          <mxGeometry relative="1" as="geometry" />
        </mxCell>
        <mxCell id="ML5xk4G4ww_KjUnVl_N--96" value="&lt;span style=&quot;font-size: 40px;&quot;&gt;Includes&lt;/span&gt;" style="rhombus;whiteSpace=wrap;html=1;" vertex="1" parent="1">
          <mxGeometry x="865" y="815" width="290" height="290" as="geometry" />
        </mxCell>
        <mxCell id="ML5xk4G4ww_KjUnVl_N--99" style="edgeStyle=orthogonalEdgeStyle;rounded=0;orthogonalLoop=1;jettySize=auto;html=1;entryX=0.5;entryY=1;entryDx=0;entryDy=0;" edge="1" parent="1" source="ML5xk4G4ww_KjUnVl_N--98" target="ML5xk4G4ww_KjUnVl_N--96">
          <mxGeometry relative="1" as="geometry" />
        </mxCell>
        <mxCell id="ML5xk4G4ww_KjUnVl_N--98" value="&lt;span style=&quot;font-size: 40px;&quot;&gt;Admin access&lt;/span&gt;" style="rounded=0;whiteSpace=wrap;html=1;" vertex="1" parent="1">
          <mxGeometry x="860" y="1210" width="300" height="140" as="geometry" />
        </mxCell>
        <mxCell id="ML5xk4G4ww_KjUnVl_N--104" style="edgeStyle=orthogonalEdgeStyle;rounded=0;orthogonalLoop=1;jettySize=auto;html=1;entryX=0.5;entryY=1;entryDx=0;entryDy=0;" edge="1" parent="1" source="ML5xk4G4ww_KjUnVl_N--100" target="ML5xk4G4ww_KjUnVl_N--98">
          <mxGeometry relative="1" as="geometry" />
        </mxCell>
        <mxCell id="ML5xk4G4ww_KjUnVl_N--100" value="&lt;span style=&quot;font-size: 25px;&quot;&gt;Abilities&lt;/span&gt;" style="ellipse;whiteSpace=wrap;html=1;" vertex="1" parent="1">
          <mxGeometry x="950" y="1395" width="120" height="80" as="geometry" />
        </mxCell>
        <mxCell id="ML5xk4G4ww_KjUnVl_N--106" style="edgeStyle=orthogonalEdgeStyle;rounded=0;orthogonalLoop=1;jettySize=auto;html=1;entryX=1;entryY=0.5;entryDx=0;entryDy=0;" edge="1" parent="1" source="ML5xk4G4ww_KjUnVl_N--101" target="ML5xk4G4ww_KjUnVl_N--100">
          <mxGeometry relative="1" as="geometry" />
        </mxCell>
        <mxCell id="ML5xk4G4ww_KjUnVl_N--101" value="&lt;span style=&quot;font-size: 25px;&quot;&gt;Add Stock&lt;/span&gt;" style="ellipse;whiteSpace=wrap;html=1;" vertex="1" parent="1">
          <mxGeometry x="1070" y="1465" width="120" height="80" as="geometry" />
        </mxCell>
        <mxCell id="ML5xk4G4ww_KjUnVl_N--105" style="edgeStyle=orthogonalEdgeStyle;rounded=0;orthogonalLoop=1;jettySize=auto;html=1;entryX=0.5;entryY=1;entryDx=0;entryDy=0;" edge="1" parent="1" source="ML5xk4G4ww_KjUnVl_N--102" target="ML5xk4G4ww_KjUnVl_N--100">
          <mxGeometry relative="1" as="geometry" />
        </mxCell>
        <mxCell id="ML5xk4G4ww_KjUnVl_N--102" value="&lt;span style=&quot;font-size: 25px;&quot;&gt;Change stock&amp;nbsp;&lt;/span&gt;&lt;div&gt;&lt;span style=&quot;font-size: 25px;&quot;&gt;attributes&lt;/span&gt;&lt;/div&gt;" style="ellipse;whiteSpace=wrap;html=1;" vertex="1" parent="1">
          <mxGeometry x="920" y="1530" width="180" height="120" as="geometry" />
        </mxCell>
        <mxCell id="ML5xk4G4ww_KjUnVl_N--108" style="edgeStyle=orthogonalEdgeStyle;rounded=0;orthogonalLoop=1;jettySize=auto;html=1;entryX=0.642;entryY=1;entryDx=0;entryDy=0;entryPerimeter=0;" edge="1" parent="1" source="ML5xk4G4ww_KjUnVl_N--85" target="ML5xk4G4ww_KjUnVl_N--81">
          <mxGeometry relative="1" as="geometry" />
        </mxCell>
        <mxCell id="ML5xk4G4ww_KjUnVl_N--113" style="edgeStyle=orthogonalEdgeStyle;rounded=0;orthogonalLoop=1;jettySize=auto;html=1;entryX=0.5;entryY=0;entryDx=0;entryDy=0;" edge="1" parent="1" source="ML5xk4G4ww_KjUnVl_N--109" target="ML5xk4G4ww_KjUnVl_N--111">
          <mxGeometry relative="1" as="geometry" />
        </mxCell>
        <mxCell id="ML5xk4G4ww_KjUnVl_N--109" value="&lt;span style=&quot;font-size: 40px;&quot;&gt;Has&lt;/span&gt;" style="rhombus;whiteSpace=wrap;html=1;" vertex="1" parent="1">
          <mxGeometry x="2465" y="815" width="290" height="290" as="geometry" />
        </mxCell>
        <mxCell id="ML5xk4G4ww_KjUnVl_N--111" value="&lt;span style=&quot;font-size: 40px;&quot;&gt;Company data&lt;/span&gt;" style="rounded=0;whiteSpace=wrap;html=1;" vertex="1" parent="1">
          <mxGeometry x="2460" y="1210" width="300" height="140" as="geometry" />
        </mxCell>
        <mxCell id="ML5xk4G4ww_KjUnVl_N--122" style="edgeStyle=orthogonalEdgeStyle;rounded=0;orthogonalLoop=1;jettySize=auto;html=1;entryX=1;entryY=0.5;entryDx=0;entryDy=0;" edge="1" parent="1" source="ML5xk4G4ww_KjUnVl_N--118" target="ML5xk4G4ww_KjUnVl_N--120">
          <mxGeometry relative="1" as="geometry" />
        </mxCell>
        <mxCell id="ML5xk4G4ww_KjUnVl_N--118" value="&lt;span style=&quot;font-size: 25px;&quot;&gt;Carrier&lt;/span&gt;" style="ellipse;whiteSpace=wrap;html=1;" vertex="1" parent="1">
          <mxGeometry x="2770" y="1520" width="120" height="80" as="geometry" />
        </mxCell>
        <mxCell id="ML5xk4G4ww_KjUnVl_N--123" style="edgeStyle=orthogonalEdgeStyle;rounded=0;orthogonalLoop=1;jettySize=auto;html=1;entryX=0;entryY=0.5;entryDx=0;entryDy=0;" edge="1" parent="1" source="ML5xk4G4ww_KjUnVl_N--119" target="ML5xk4G4ww_KjUnVl_N--120">
          <mxGeometry relative="1" as="geometry" />
        </mxCell>
        <mxCell id="ML5xk4G4ww_KjUnVl_N--119" value="&lt;span style=&quot;font-size: 25px;&quot;&gt;Delivery price&lt;/span&gt;" style="ellipse;whiteSpace=wrap;html=1;" vertex="1" parent="1">
          <mxGeometry x="2610" y="1520" width="120" height="80" as="geometry" />
        </mxCell>
        <mxCell id="ML5xk4G4ww_KjUnVl_N--120" value="&lt;span style=&quot;font-size: 25px;&quot;&gt;Logistics&lt;/span&gt;" style="ellipse;whiteSpace=wrap;html=1;" vertex="1" parent="1">
          <mxGeometry x="2690" y="1385" width="120" height="80" as="geometry" />
        </mxCell>
        <mxCell id="ML5xk4G4ww_KjUnVl_N--130" style="edgeStyle=orthogonalEdgeStyle;rounded=0;orthogonalLoop=1;jettySize=auto;html=1;entryX=0.5;entryY=0;entryDx=0;entryDy=0;" edge="1" parent="1" source="ML5xk4G4ww_KjUnVl_N--125" target="ML5xk4G4ww_KjUnVl_N--129">
          <mxGeometry relative="1" as="geometry">
            <Array as="points">
              <mxPoint x="2480" y="1485" />
              <mxPoint x="2540" y="1485" />
            </Array>
          </mxGeometry>
        </mxCell>
        <mxCell id="ML5xk4G4ww_KjUnVl_N--131" style="edgeStyle=orthogonalEdgeStyle;rounded=0;orthogonalLoop=1;jettySize=auto;html=1;" edge="1" parent="1" source="ML5xk4G4ww_KjUnVl_N--125" target="ML5xk4G4ww_KjUnVl_N--127">
          <mxGeometry relative="1" as="geometry">
            <Array as="points">
              <mxPoint x="2480" y="1485" />
              <mxPoint x="2380" y="1485" />
            </Array>
          </mxGeometry>
        </mxCell>
        <mxCell id="ML5xk4G4ww_KjUnVl_N--125" value="&lt;span style=&quot;font-size: 25px;&quot;&gt;Money&lt;/span&gt;" style="ellipse;whiteSpace=wrap;html=1;" vertex="1" parent="1">
          <mxGeometry x="2420" y="1385" width="120" height="80" as="geometry" />
        </mxCell>
        <mxCell id="ML5xk4G4ww_KjUnVl_N--126" style="edgeStyle=orthogonalEdgeStyle;rounded=0;orthogonalLoop=1;jettySize=auto;html=1;entryX=0.065;entryY=1.016;entryDx=0;entryDy=0;entryPerimeter=0;" edge="1" parent="1" source="ML5xk4G4ww_KjUnVl_N--125" target="ML5xk4G4ww_KjUnVl_N--111">
          <mxGeometry relative="1" as="geometry" />
        </mxCell>
        <mxCell id="ML5xk4G4ww_KjUnVl_N--127" value="&lt;span style=&quot;font-size: 25px;&quot;&gt;Revenue&lt;/span&gt;" style="ellipse;whiteSpace=wrap;html=1;" vertex="1" parent="1">
          <mxGeometry x="2345" y="1515" width="120" height="80" as="geometry" />
        </mxCell>
        <mxCell id="ML5xk4G4ww_KjUnVl_N--128" style="edgeStyle=orthogonalEdgeStyle;rounded=0;orthogonalLoop=1;jettySize=auto;html=1;entryX=0.967;entryY=1;entryDx=0;entryDy=0;entryPerimeter=0;" edge="1" parent="1" source="ML5xk4G4ww_KjUnVl_N--120" target="ML5xk4G4ww_KjUnVl_N--111">
          <mxGeometry relative="1" as="geometry" />
        </mxCell>
        <mxCell id="ML5xk4G4ww_KjUnVl_N--129" value="&lt;span style=&quot;font-size: 25px;&quot;&gt;Profit&lt;/span&gt;" style="ellipse;whiteSpace=wrap;html=1;" vertex="1" parent="1">
          <mxGeometry x="2480" y="1520" width="120" height="80" as="geometry" />
        </mxCell>
      </root>
    </mxGraphModel>
  </diagram>
</mxfile>
